<?xml version="1.0" encoding="UTF-8" standalone="no"?>
<!DOCTYPE svg PUBLIC "-//W3C//DTD SVG 1.1//EN"
 "http://www.w3.org/Graphics/SVG/1.1/DTD/svg11.dtd">
<!-- Generated by graphviz version 2.40.1 (20161225.0304)
 -->
<!-- Title: dependencies Pages: 1 -->
<svg width="675pt" height="211pt"
 viewBox="0.00 0.00 675.00 211.00" xmlns="http://www.w3.org/2000/svg" xmlns:xlink="http://www.w3.org/1999/xlink">
<g id="graph0" class="graph" transform="scale(1 1) rotate(0) translate(4 207)">
<title>dependencies</title>
<polygon fill="#ffffff" stroke="transparent" points="-4,4 -4,-207 671,-207 671,4 -4,4"/>
<text text-anchor="start" x="312.5091" y="-42.4" font-family="sans-serif" font-weight="bold" font-size="14.00" fill="#000000">Legend</text>
<polygon fill="#ffffb3" stroke="transparent" points="99.5,-10 99.5,-30 119.5,-30 119.5,-10 99.5,-10"/>
<text text-anchor="start" x="123.129" y="-15.4" font-family="sans-serif" font-size="14.00" fill="#000000"> &#160;Declarations</text>
<polygon fill="#8dd3c7" stroke="transparent" points="212.5,-10 212.5,-30 232.5,-30 232.5,-10 212.5,-10"/>
<text text-anchor="start" x="236.2251" y="-15.4" font-family="sans-serif" font-size="14.00" fill="#000000"> &#160;Module</text>
<polygon fill="#80b1d3" stroke="transparent" points="298.5,-10 298.5,-30 318.5,-30 318.5,-10 298.5,-10"/>
<text text-anchor="start" x="322.2812" y="-15.4" font-family="sans-serif" font-size="14.00" fill="#000000"> &#160;Bootstrap</text>
<polygon fill="#fdb462" stroke="transparent" points="395.5,-10 395.5,-30 415.5,-30 415.5,-10 395.5,-10"/>
<text text-anchor="start" x="419.1732" y="-15.4" font-family="sans-serif" font-size="14.00" fill="#000000"> &#160;Providers</text>
<polygon fill="#fb8072" stroke="transparent" points="491.5,-10 491.5,-30 511.5,-30 511.5,-10 491.5,-10"/>
<text text-anchor="start" x="515.2258" y="-15.4" font-family="sans-serif" font-size="14.00" fill="#000000"> &#160;Exports</text>
<g id="clust1" class="cluster">
<title>cluster_TeamsModule</title>
<polygon fill="none" stroke="#000000" stroke-dasharray="1,5" points="8,-70 8,-195 659,-195 659,-70 8,-70"/>
</g>
<g id="clust3" class="cluster">
<title>cluster_TeamsModule_imports</title>
<polygon fill="none" stroke="#000000" points="525,-78 525,-130 651,-130 651,-78 525,-78"/>
</g>
<g id="clust6" class="cluster">
<title>cluster_TeamsModule_providers</title>
<polygon fill="none" stroke="#000000" points="16,-78 16,-130 517,-130 517,-78 16,-78"/>
</g>
<!-- DatabaseModule -->
<g id="node1" class="node">
<title>DatabaseModule</title>
<polygon fill="#8dd3c7" stroke="#000000" points="643.3501,-122 640.3501,-126 619.3501,-126 616.3501,-122 532.6499,-122 532.6499,-86 643.3501,-86 643.3501,-122"/>
<text text-anchor="middle" x="588" y="-99.8" font-family="Times,serif" font-size="14.00" fill="#000000">DatabaseModule</text>
</g>
<!-- TeamModule -->
<g id="node2" class="node">
<title>TeamModule</title>
<polygon fill="#8dd3c7" stroke="#000000" points="378.3669,-187 375.3669,-191 354.3669,-191 351.3669,-187 281.6331,-187 281.6331,-151 378.3669,-151 378.3669,-187"/>
<text text-anchor="middle" x="330" y="-164.8" font-family="Times,serif" font-size="14.00" fill="#000000">TeamModule</text>
</g>
<!-- DatabaseModule&#45;&gt;TeamModule -->
<g id="edge1" class="edge">
<title>DatabaseModule&#45;&gt;TeamModule</title>
<path fill="none" stroke="#000000" d="M588,-122.1061C588,-141.3391 588,-169 588,-169 588,-169 388.5278,-169 388.5278,-169"/>
<polygon fill="#000000" stroke="#000000" points="388.5279,-165.5001 378.5278,-169 388.5278,-172.5001 388.5279,-165.5001"/>
</g>
<!-- PlayerCareerService -->
<g id="node3" class="node">
<title>PlayerCareerService</title>
<ellipse fill="#fdb462" stroke="#000000" cx="419" cy="-104" rx="90.2812" ry="18"/>
<text text-anchor="middle" x="419" y="-99.8" font-family="Times,serif" font-size="14.00" fill="#000000">PlayerCareerService</text>
</g>
<!-- PlayerCareerService&#45;&gt;TeamModule -->
<g id="edge2" class="edge">
<title>PlayerCareerService&#45;&gt;TeamModule</title>
<path fill="none" stroke="#000000" d="M353.5214,-116.5327C353.5214,-116.5327 353.5214,-140.8507 353.5214,-140.8507"/>
<polygon fill="#000000" stroke="#000000" points="350.0215,-140.8506 353.5214,-150.8507 357.0215,-140.8507 350.0215,-140.8506"/>
</g>
<!-- PlayerService -->
<g id="node4" class="node">
<title>PlayerService</title>
<ellipse fill="#fdb462" stroke="#000000" cx="242" cy="-104" rx="68.3324" ry="18"/>
<text text-anchor="middle" x="242" y="-99.8" font-family="Times,serif" font-size="14.00" fill="#000000">PlayerService</text>
</g>
<!-- PlayerService&#45;&gt;TeamModule -->
<g id="edge3" class="edge">
<title>PlayerService&#45;&gt;TeamModule</title>
<path fill="none" stroke="#000000" d="M295.9914,-115.3221C295.9914,-115.3221 295.9914,-140.9424 295.9914,-140.9424"/>
<polygon fill="#000000" stroke="#000000" points="292.4915,-140.9424 295.9914,-150.9424 299.4915,-140.9425 292.4915,-140.9424"/>
</g>
<!-- TeamService -->
<g id="node5" class="node">
<title>TeamService</title>
<ellipse fill="#fdb462" stroke="#000000" cx="90" cy="-104" rx="65.9658" ry="18"/>
<text text-anchor="middle" x="90" y="-99.8" font-family="Times,serif" font-size="14.00" fill="#000000">TeamService</text>
</g>
<!-- TeamService&#45;&gt;TeamModule -->
<g id="edge4" class="edge">
<title>TeamService&#45;&gt;TeamModule</title>
<path fill="none" stroke="#000000" d="M90,-122.1061C90,-141.3391 90,-169 90,-169 90,-169 271.4324,-169 271.4324,-169"/>
<polygon fill="#000000" stroke="#000000" points="271.4325,-172.5001 281.4324,-169 271.4324,-165.5001 271.4325,-172.5001"/>
</g>
</g>
</svg>
