<?xml version="1.0" encoding="UTF-8" standalone="no"?>
<!DOCTYPE svg PUBLIC "-//W3C//DTD SVG 1.1//EN"
 "http://www.w3.org/Graphics/SVG/1.1/DTD/svg11.dtd">
<!-- Generated by graphviz version 2.40.1 (20161225.0304)
 -->
<!-- Title: dependencies Pages: 1 -->
<svg width="570pt" height="287pt"
 viewBox="0.00 0.00 570.00 287.00" xmlns="http://www.w3.org/2000/svg" xmlns:xlink="http://www.w3.org/1999/xlink">
<g id="graph0" class="graph" transform="scale(1 1) rotate(0) translate(4 283)">
<title>dependencies</title>
<polygon fill="#ffffff" stroke="transparent" points="-4,4 -4,-283 566,-283 566,4 -4,4"/>
<text text-anchor="start" x="260.0091" y="-42.4" font-family="sans-serif" font-weight="bold" font-size="14.00" fill="#000000">Legend</text>
<polygon fill="#ffffb3" stroke="transparent" points="47,-10 47,-30 67,-30 67,-10 47,-10"/>
<text text-anchor="start" x="70.629" y="-15.4" font-family="sans-serif" font-size="14.00" fill="#000000"> &#160;Declarations</text>
<polygon fill="#8dd3c7" stroke="transparent" points="160,-10 160,-30 180,-30 180,-10 160,-10"/>
<text text-anchor="start" x="183.7251" y="-15.4" font-family="sans-serif" font-size="14.00" fill="#000000"> &#160;Module</text>
<polygon fill="#80b1d3" stroke="transparent" points="246,-10 246,-30 266,-30 266,-10 246,-10"/>
<text text-anchor="start" x="269.7812" y="-15.4" font-family="sans-serif" font-size="14.00" fill="#000000"> &#160;Bootstrap</text>
<polygon fill="#fdb462" stroke="transparent" points="343,-10 343,-30 363,-30 363,-10 343,-10"/>
<text text-anchor="start" x="366.6732" y="-15.4" font-family="sans-serif" font-size="14.00" fill="#000000"> &#160;Providers</text>
<polygon fill="#fb8072" stroke="transparent" points="439,-10 439,-30 459,-30 459,-10 439,-10"/>
<text text-anchor="start" x="462.7258" y="-15.4" font-family="sans-serif" font-size="14.00" fill="#000000"> &#160;Exports</text>
<g id="clust1" class="cluster">
<title>cluster_AppModule</title>
<polygon fill="none" stroke="#000000" stroke-dasharray="1,5" points="95,-146 95,-271 482,-271 482,-146 95,-146"/>
</g>
<g id="clust3" class="cluster">
<title>cluster_AppModule_imports</title>
<polygon fill="none" stroke="#000000" points="103,-154 103,-206 474,-206 474,-154 103,-154"/>
</g>
<g id="clust7" class="cluster">
<title>cluster_PlayerCareerModule</title>
<polygon fill="none" stroke="#000000" stroke-dasharray="1,5" points="8,-70 8,-138 220,-138 220,-70 8,-70"/>
</g>
<g id="clust12" class="cluster">
<title>cluster_PlayerCareerModule_providers</title>
<polygon fill="none" stroke="#000000" points="16,-78 16,-130 212,-130 212,-78 16,-78"/>
</g>
<g id="clust13" class="cluster">
<title>cluster_PlayerModule</title>
<polygon fill="none" stroke="#000000" stroke-dasharray="1,5" points="228,-70 228,-138 390,-138 390,-70 228,-70"/>
</g>
<g id="clust18" class="cluster">
<title>cluster_PlayerModule_providers</title>
<polygon fill="none" stroke="#000000" points="236,-78 236,-130 382,-130 382,-78 236,-78"/>
</g>
<g id="clust19" class="cluster">
<title>cluster_TeamModule</title>
<polygon fill="none" stroke="#000000" stroke-dasharray="1,5" points="398,-70 398,-138 554,-138 554,-70 398,-70"/>
</g>
<g id="clust24" class="cluster">
<title>cluster_TeamModule_providers</title>
<polygon fill="none" stroke="#000000" points="406,-78 406,-130 546,-130 546,-78 406,-78"/>
</g>
<!-- PlayerCareerModule -->
<g id="node1" class="node">
<title>PlayerCareerModule</title>
<polygon fill="#8dd3c7" stroke="#000000" points="243.115,-198 240.115,-202 219.115,-202 216.115,-198 110.885,-198 110.885,-162 243.115,-162 243.115,-198"/>
<text text-anchor="middle" x="177" y="-175.8" font-family="Times,serif" font-size="14.00" fill="#000000">PlayerCareerModule</text>
</g>
<!-- AppModule -->
<g id="node4" class="node">
<title>AppModule</title>
<polygon fill="#8dd3c7" stroke="#000000" points="350.6571,-263 347.6571,-267 326.6571,-267 323.6571,-263 267.3429,-263 267.3429,-227 350.6571,-227 350.6571,-263"/>
<text text-anchor="middle" x="309" y="-240.8" font-family="Times,serif" font-size="14.00" fill="#000000">AppModule</text>
</g>
<!-- PlayerCareerModule&#45;&gt;AppModule -->
<g id="edge1" class="edge">
<title>PlayerCareerModule&#45;&gt;AppModule</title>
<path fill="none" stroke="#000000" d="M177,-198.1061C177,-217.3391 177,-245 177,-245 177,-245 257.2344,-245 257.2344,-245"/>
<polygon fill="#000000" stroke="#000000" points="257.2344,-248.5001 267.2344,-245 257.2343,-241.5001 257.2344,-248.5001"/>
</g>
<!-- PlayerModule -->
<g id="node2" class="node">
<title>PlayerModule</title>
<polygon fill="#8dd3c7" stroke="#000000" points="356.8133,-198 353.8133,-202 332.8133,-202 329.8133,-198 261.1867,-198 261.1867,-162 356.8133,-162 356.8133,-198"/>
<text text-anchor="middle" x="309" y="-175.8" font-family="Times,serif" font-size="14.00" fill="#000000">PlayerModule</text>
</g>
<!-- PlayerModule&#45;&gt;AppModule -->
<g id="edge2" class="edge">
<title>PlayerModule&#45;&gt;AppModule</title>
<path fill="none" stroke="#000000" d="M309,-198.1061C309,-198.1061 309,-216.991 309,-216.991"/>
<polygon fill="#000000" stroke="#000000" points="305.5001,-216.9909 309,-226.991 312.5001,-216.991 305.5001,-216.9909"/>
</g>
<!-- TeamModule -->
<g id="node3" class="node">
<title>TeamModule</title>
<polygon fill="#8dd3c7" stroke="#000000" points="465.9232,-198 462.9232,-202 441.9232,-202 438.9232,-198 374.0768,-198 374.0768,-162 465.9232,-162 465.9232,-198"/>
<text text-anchor="middle" x="420" y="-175.8" font-family="Times,serif" font-size="14.00" fill="#000000">TeamModule</text>
</g>
<!-- TeamModule&#45;&gt;AppModule -->
<g id="edge3" class="edge">
<title>TeamModule&#45;&gt;AppModule</title>
<path fill="none" stroke="#000000" d="M420,-198.1061C420,-217.3391 420,-245 420,-245 420,-245 360.9643,-245 360.9643,-245"/>
<polygon fill="#000000" stroke="#000000" points="360.9644,-241.5001 350.9643,-245 360.9643,-248.5001 360.9644,-241.5001"/>
</g>
<!-- PlayerCareerService -->
<g id="node5" class="node">
<title>PlayerCareerService</title>
<ellipse fill="#fdb462" stroke="#000000" cx="114" cy="-104" rx="90.2812" ry="18"/>
<text text-anchor="middle" x="114" y="-99.8" font-family="Times,serif" font-size="14.00" fill="#000000">PlayerCareerService</text>
</g>
<!-- PlayerCareerService&#45;&gt;PlayerCareerModule -->
<g id="edge4" class="edge">
<title>PlayerCareerService&#45;&gt;PlayerCareerModule</title>
<path fill="none" stroke="#000000" d="M157.5417,-120.1176C157.5417,-120.1176 157.5417,-151.7719 157.5417,-151.7719"/>
<polygon fill="#000000" stroke="#000000" points="154.0418,-151.7719 157.5417,-161.7719 161.0418,-151.772 154.0418,-151.7719"/>
</g>
<!-- PlayerService -->
<g id="node6" class="node">
<title>PlayerService</title>
<ellipse fill="#fdb462" stroke="#000000" cx="309" cy="-104" rx="64.8215" ry="18"/>
<text text-anchor="middle" x="309" y="-99.8" font-family="Times,serif" font-size="14.00" fill="#000000">PlayerService</text>
</g>
<!-- PlayerService&#45;&gt;PlayerModule -->
<g id="edge5" class="edge">
<title>PlayerService&#45;&gt;PlayerModule</title>
<path fill="none" stroke="#000000" d="M309,-122.0109C309,-122.0109 309,-151.855 309,-151.855"/>
<polygon fill="#000000" stroke="#000000" points="305.5001,-151.8549 309,-161.855 312.5001,-151.855 305.5001,-151.8549"/>
</g>
<!-- TeamService -->
<g id="node7" class="node">
<title>TeamService</title>
<ellipse fill="#fdb462" stroke="#000000" cx="476" cy="-104" rx="61.9538" ry="18"/>
<text text-anchor="middle" x="476" y="-99.8" font-family="Times,serif" font-size="14.00" fill="#000000">TeamService</text>
</g>
<!-- TeamService&#45;&gt;TeamModule -->
<g id="edge6" class="edge">
<title>TeamService&#45;&gt;TeamModule</title>
<path fill="none" stroke="#000000" d="M439.8671,-118.6536C439.8671,-118.6536 439.8671,-151.9047 439.8671,-151.9047"/>
<polygon fill="#000000" stroke="#000000" points="436.3672,-151.9047 439.8671,-161.9047 443.3672,-151.9048 436.3672,-151.9047"/>
</g>
</g>
</svg>
