<?xml version="1.0" encoding="UTF-8" standalone="no"?>
<!DOCTYPE svg PUBLIC "-//W3C//DTD SVG 1.1//EN"
 "http://www.w3.org/Graphics/SVG/1.1/DTD/svg11.dtd">
<!-- Generated by graphviz version 2.40.1 (20161225.0304)
 -->
<!-- Title: dependencies Pages: 1 -->
<svg width="504pt" height="211pt"
 viewBox="0.00 0.00 504.00 211.00" xmlns="http://www.w3.org/2000/svg" xmlns:xlink="http://www.w3.org/1999/xlink">
<g id="graph0" class="graph" transform="scale(1 1) rotate(0) translate(4 207)">
<title>dependencies</title>
<polygon fill="#ffffff" stroke="transparent" points="-4,4 -4,-207 500,-207 500,4 -4,4"/>
<text text-anchor="start" x="227.0091" y="-42.4" font-family="sans-serif" font-weight="bold" font-size="14.00" fill="#000000">Legend</text>
<polygon fill="#ffffb3" stroke="transparent" points="14,-10 14,-30 34,-30 34,-10 14,-10"/>
<text text-anchor="start" x="37.629" y="-15.4" font-family="sans-serif" font-size="14.00" fill="#000000"> &#160;Declarations</text>
<polygon fill="#8dd3c7" stroke="transparent" points="127,-10 127,-30 147,-30 147,-10 127,-10"/>
<text text-anchor="start" x="150.7251" y="-15.4" font-family="sans-serif" font-size="14.00" fill="#000000"> &#160;Module</text>
<polygon fill="#80b1d3" stroke="transparent" points="213,-10 213,-30 233,-30 233,-10 213,-10"/>
<text text-anchor="start" x="236.7812" y="-15.4" font-family="sans-serif" font-size="14.00" fill="#000000"> &#160;Bootstrap</text>
<polygon fill="#fdb462" stroke="transparent" points="310,-10 310,-30 330,-30 330,-10 310,-10"/>
<text text-anchor="start" x="333.6732" y="-15.4" font-family="sans-serif" font-size="14.00" fill="#000000"> &#160;Providers</text>
<polygon fill="#fb8072" stroke="transparent" points="406,-10 406,-30 426,-30 426,-10 406,-10"/>
<text text-anchor="start" x="429.7258" y="-15.4" font-family="sans-serif" font-size="14.00" fill="#000000"> &#160;Exports</text>
<g id="clust1" class="cluster">
<title>cluster_PlayersModule</title>
<polygon fill="none" stroke="#000000" stroke-dasharray="1,5" points="89,-70 89,-195 407,-195 407,-70 89,-70"/>
</g>
<g id="clust6" class="cluster">
<title>cluster_PlayersModule_providers</title>
<polygon fill="none" stroke="#000000" points="97,-78 97,-130 399,-130 399,-78 97,-78"/>
</g>
<!-- PlayersService -->
<g id="node1" class="node">
<title>PlayersService</title>
<ellipse fill="#fdb462" stroke="#000000" cx="323" cy="-104" rx="68.3324" ry="18"/>
<text text-anchor="middle" x="323" y="-99.8" font-family="Times,serif" font-size="14.00" fill="#000000">PlayersService</text>
</g>
<!-- PlayersModule -->
<g id="node3" class="node">
<title>PlayersModule</title>
<polygon fill="#8dd3c7" stroke="#000000" points="297.2577,-187 294.2577,-191 273.2577,-191 270.2577,-187 196.7423,-187 196.7423,-151 297.2577,-151 297.2577,-187"/>
<text text-anchor="middle" x="247" y="-164.8" font-family="Times,serif" font-size="14.00" fill="#000000">PlayersModule</text>
</g>
<!-- PlayersService&#45;&gt;PlayersModule -->
<g id="edge1" class="edge">
<title>PlayersService&#45;&gt;PlayersModule</title>
<path fill="none" stroke="#000000" d="M275.9813,-117.1537C275.9813,-117.1537 275.9813,-140.6938 275.9813,-140.6938"/>
<polygon fill="#000000" stroke="#000000" points="272.4814,-140.6938 275.9813,-150.6938 279.4814,-140.6939 272.4814,-140.6938"/>
</g>
<!-- TeamsService -->
<g id="node2" class="node">
<title>TeamsService</title>
<ellipse fill="#fdb462" stroke="#000000" cx="171" cy="-104" rx="65.9658" ry="18"/>
<text text-anchor="middle" x="171" y="-99.8" font-family="Times,serif" font-size="14.00" fill="#000000">TeamsService</text>
</g>
<!-- TeamsService&#45;&gt;PlayersModule -->
<g id="edge2" class="edge">
<title>TeamsService&#45;&gt;PlayersModule</title>
<path fill="none" stroke="#000000" d="M216.6769,-117.1537C216.6769,-117.1537 216.6769,-140.6938 216.6769,-140.6938"/>
<polygon fill="#000000" stroke="#000000" points="213.177,-140.6938 216.6769,-150.6938 220.177,-140.6939 213.177,-140.6938"/>
</g>
</g>
</svg>
