<?xml version="1.0" encoding="UTF-8" standalone="no"?>
<!DOCTYPE svg PUBLIC "-//W3C//DTD SVG 1.1//EN"
 "http://www.w3.org/Graphics/SVG/1.1/DTD/svg11.dtd">
<!-- Generated by graphviz version 2.40.1 (20161225.0304)
 -->
<!-- Title: dependencies Pages: 1 -->
<svg width="675pt" height="211pt"
 viewBox="0.00 0.00 675.00 211.00" xmlns="http://www.w3.org/2000/svg" xmlns:xlink="http://www.w3.org/1999/xlink">
<g id="graph0" class="graph" transform="scale(1 1) rotate(0) translate(4 207)">
<title>dependencies</title>
<polygon fill="#ffffff" stroke="transparent" points="-4,4 -4,-207 671,-207 671,4 -4,4"/>
<text text-anchor="start" x="312.5091" y="-42.4" font-family="sans-serif" font-weight="bold" font-size="14.00" fill="#000000">Legend</text>
<polygon fill="#ffffb3" stroke="transparent" points="99.5,-10 99.5,-30 119.5,-30 119.5,-10 99.5,-10"/>
<text text-anchor="start" x="123.129" y="-15.4" font-family="sans-serif" font-size="14.00" fill="#000000"> &#160;Declarations</text>
<polygon fill="#8dd3c7" stroke="transparent" points="212.5,-10 212.5,-30 232.5,-30 232.5,-10 212.5,-10"/>
<text text-anchor="start" x="236.2251" y="-15.4" font-family="sans-serif" font-size="14.00" fill="#000000"> &#160;Module</text>
<polygon fill="#80b1d3" stroke="transparent" points="298.5,-10 298.5,-30 318.5,-30 318.5,-10 298.5,-10"/>
<text text-anchor="start" x="322.2812" y="-15.4" font-family="sans-serif" font-size="14.00" fill="#000000"> &#160;Bootstrap</text>
<polygon fill="#fdb462" stroke="transparent" points="395.5,-10 395.5,-30 415.5,-30 415.5,-10 395.5,-10"/>
<text text-anchor="start" x="419.1732" y="-15.4" font-family="sans-serif" font-size="14.00" fill="#000000"> &#160;Providers</text>
<polygon fill="#fb8072" stroke="transparent" points="491.5,-10 491.5,-30 511.5,-30 511.5,-10 491.5,-10"/>
<text text-anchor="start" x="515.2258" y="-15.4" font-family="sans-serif" font-size="14.00" fill="#000000"> &#160;Exports</text>
<g id="clust1" class="cluster">
<title>cluster_PlayersModule</title>
<polygon fill="none" stroke="#000000" stroke-dasharray="1,5" points="8,-70 8,-195 659,-195 659,-70 8,-70"/>
</g>
<g id="clust3" class="cluster">
<title>cluster_PlayersModule_imports</title>
<polygon fill="none" stroke="#000000" points="525,-78 525,-130 651,-130 651,-78 525,-78"/>
</g>
<g id="clust6" class="cluster">
<title>cluster_PlayersModule_providers</title>
<polygon fill="none" stroke="#000000" points="16,-78 16,-130 517,-130 517,-78 16,-78"/>
</g>
<!-- DatabaseModule -->
<g id="node1" class="node">
<title>DatabaseModule</title>
<polygon fill="#8dd3c7" stroke="#000000" points="643.3501,-122 640.3501,-126 619.3501,-126 616.3501,-122 532.6499,-122 532.6499,-86 643.3501,-86 643.3501,-122"/>
<text text-anchor="middle" x="588" y="-99.8" font-family="Times,serif" font-size="14.00" fill="#000000">DatabaseModule</text>
</g>
<!-- PlayerModule -->
<g id="node2" class="node">
<title>PlayerModule</title>
<polygon fill="#8dd3c7" stroke="#000000" points="380.2577,-187 377.2577,-191 356.2577,-191 353.2577,-187 279.7423,-187 279.7423,-151 380.2577,-151 380.2577,-187"/>
<text text-anchor="middle" x="330" y="-164.8" font-family="Times,serif" font-size="14.00" fill="#000000">PlayerModule</text>
</g>
<!-- DatabaseModule&#45;&gt;PlayerModule -->
<g id="edge1" class="edge">
<title>DatabaseModule&#45;&gt;PlayerModule</title>
<path fill="none" stroke="#000000" d="M588,-122.1061C588,-141.3391 588,-169 588,-169 588,-169 390.3575,-169 390.3575,-169"/>
<polygon fill="#000000" stroke="#000000" points="390.3575,-165.5001 380.3575,-169 390.3574,-172.5001 390.3575,-165.5001"/>
</g>
<!-- PlayerCareerService -->
<g id="node3" class="node">
<title>PlayerCareerService</title>
<ellipse fill="#fdb462" stroke="#000000" cx="419" cy="-104" rx="90.2812" ry="18"/>
<text text-anchor="middle" x="419" y="-99.8" font-family="Times,serif" font-size="14.00" fill="#000000">PlayerCareerService</text>
</g>
<!-- PlayerCareerService&#45;&gt;PlayerModule -->
<g id="edge2" class="edge">
<title>PlayerCareerService&#45;&gt;PlayerModule</title>
<path fill="none" stroke="#000000" d="M354.4941,-116.8419C354.4941,-116.8419 354.4941,-140.5231 354.4941,-140.5231"/>
<polygon fill="#000000" stroke="#000000" points="350.9942,-140.523 354.4941,-150.5231 357.9942,-140.5231 350.9942,-140.523"/>
</g>
<!-- PlayerService -->
<g id="node4" class="node">
<title>PlayerService</title>
<ellipse fill="#fdb462" stroke="#000000" cx="242" cy="-104" rx="68.3324" ry="18"/>
<text text-anchor="middle" x="242" y="-99.8" font-family="Times,serif" font-size="14.00" fill="#000000">PlayerService</text>
</g>
<!-- PlayerService&#45;&gt;PlayerModule -->
<g id="edge3" class="edge">
<title>PlayerService&#45;&gt;PlayerModule</title>
<path fill="none" stroke="#000000" d="M295.0187,-115.6207C295.0187,-115.6207 295.0187,-140.8534 295.0187,-140.8534"/>
<polygon fill="#000000" stroke="#000000" points="291.5188,-140.8533 295.0187,-150.8534 298.5188,-140.8534 291.5188,-140.8533"/>
</g>
<!-- TeamService -->
<g id="node5" class="node">
<title>TeamService</title>
<ellipse fill="#fdb462" stroke="#000000" cx="90" cy="-104" rx="65.9658" ry="18"/>
<text text-anchor="middle" x="90" y="-99.8" font-family="Times,serif" font-size="14.00" fill="#000000">TeamService</text>
</g>
<!-- TeamService&#45;&gt;PlayerModule -->
<g id="edge4" class="edge">
<title>TeamService&#45;&gt;PlayerModule</title>
<path fill="none" stroke="#000000" d="M90,-122.1061C90,-141.3391 90,-169 90,-169 90,-169 269.6881,-169 269.6881,-169"/>
<polygon fill="#000000" stroke="#000000" points="269.6882,-172.5001 279.6881,-169 269.6881,-165.5001 269.6882,-172.5001"/>
</g>
</g>
</svg>
