<?xml version="1.0" encoding="UTF-8" standalone="no"?>
<!DOCTYPE svg PUBLIC "-//W3C//DTD SVG 1.1//EN"
 "http://www.w3.org/Graphics/SVG/1.1/DTD/svg11.dtd">
<!-- Generated by graphviz version 2.40.1 (20161225.0304)
 -->
<!-- Title: dependencies Pages: 1 -->
<svg width="504pt" height="211pt"
 viewBox="0.00 0.00 504.00 211.00" xmlns="http://www.w3.org/2000/svg" xmlns:xlink="http://www.w3.org/1999/xlink">
<g id="graph0" class="graph" transform="scale(1 1) rotate(0) translate(4 207)">
<title>dependencies</title>
<polygon fill="#ffffff" stroke="transparent" points="-4,4 -4,-207 500,-207 500,4 -4,4"/>
<text text-anchor="start" x="227.0091" y="-42.4" font-family="sans-serif" font-weight="bold" font-size="14.00" fill="#000000">Legend</text>
<polygon fill="#ffffb3" stroke="transparent" points="14,-10 14,-30 34,-30 34,-10 14,-10"/>
<text text-anchor="start" x="37.629" y="-15.4" font-family="sans-serif" font-size="14.00" fill="#000000"> &#160;Declarations</text>
<polygon fill="#8dd3c7" stroke="transparent" points="127,-10 127,-30 147,-30 147,-10 127,-10"/>
<text text-anchor="start" x="150.7251" y="-15.4" font-family="sans-serif" font-size="14.00" fill="#000000"> &#160;Module</text>
<polygon fill="#80b1d3" stroke="transparent" points="213,-10 213,-30 233,-30 233,-10 213,-10"/>
<text text-anchor="start" x="236.7812" y="-15.4" font-family="sans-serif" font-size="14.00" fill="#000000"> &#160;Bootstrap</text>
<polygon fill="#fdb462" stroke="transparent" points="310,-10 310,-30 330,-30 330,-10 310,-10"/>
<text text-anchor="start" x="333.6732" y="-15.4" font-family="sans-serif" font-size="14.00" fill="#000000"> &#160;Providers</text>
<polygon fill="#fb8072" stroke="transparent" points="406,-10 406,-30 426,-30 426,-10 406,-10"/>
<text text-anchor="start" x="429.7258" y="-15.4" font-family="sans-serif" font-size="14.00" fill="#000000"> &#160;Exports</text>
<g id="clust1" class="cluster">
<title>cluster_AppModule</title>
<polygon fill="none" stroke="#000000" stroke-dasharray="1,5" points="124.5,-70 124.5,-195 371.5,-195 371.5,-70 124.5,-70"/>
</g>
<g id="clust3" class="cluster">
<title>cluster_AppModule_imports</title>
<polygon fill="none" stroke="#000000" points="132.5,-78 132.5,-130 363.5,-130 363.5,-78 132.5,-78"/>
</g>
<!-- PlayersModule -->
<g id="node1" class="node">
<title>PlayersModule</title>
<polygon fill="#8dd3c7" stroke="#000000" points="355.7577,-122 352.7577,-126 331.7577,-126 328.7577,-122 255.2423,-122 255.2423,-86 355.7577,-86 355.7577,-122"/>
<text text-anchor="middle" x="305.5" y="-99.8" font-family="Times,serif" font-size="14.00" fill="#000000">PlayersModule</text>
</g>
<!-- AppModule -->
<g id="node3" class="node">
<title>AppModule</title>
<polygon fill="#8dd3c7" stroke="#000000" points="288.1571,-187 285.1571,-191 264.1571,-191 261.1571,-187 204.8429,-187 204.8429,-151 288.1571,-151 288.1571,-187"/>
<text text-anchor="middle" x="246.5" y="-164.8" font-family="Times,serif" font-size="14.00" fill="#000000">AppModule</text>
</g>
<!-- PlayersModule&#45;&gt;AppModule -->
<g id="edge1" class="edge">
<title>PlayersModule&#45;&gt;AppModule</title>
<path fill="none" stroke="#000000" d="M271.7247,-122.1061C271.7247,-122.1061 271.7247,-140.991 271.7247,-140.991"/>
<polygon fill="#000000" stroke="#000000" points="268.2248,-140.9909 271.7247,-150.991 275.2248,-140.991 268.2248,-140.9909"/>
</g>
<!-- TeamsModule -->
<g id="node2" class="node">
<title>TeamsModule</title>
<polygon fill="#8dd3c7" stroke="#000000" points="236.8669,-122 233.8669,-126 212.8669,-126 209.8669,-122 140.1331,-122 140.1331,-86 236.8669,-86 236.8669,-122"/>
<text text-anchor="middle" x="188.5" y="-99.8" font-family="Times,serif" font-size="14.00" fill="#000000">TeamsModule</text>
</g>
<!-- TeamsModule&#45;&gt;AppModule -->
<g id="edge2" class="edge">
<title>TeamsModule&#45;&gt;AppModule</title>
<path fill="none" stroke="#000000" d="M220.8026,-122.1061C220.8026,-122.1061 220.8026,-140.991 220.8026,-140.991"/>
<polygon fill="#000000" stroke="#000000" points="217.3027,-140.9909 220.8026,-150.991 224.3027,-140.991 217.3027,-140.9909"/>
</g>
</g>
</svg>
