<?xml version="1.0" encoding="UTF-8" standalone="no"?>
<!DOCTYPE svg PUBLIC "-//W3C//DTD SVG 1.1//EN"
 "http://www.w3.org/Graphics/SVG/1.1/DTD/svg11.dtd">
<!-- Generated by graphviz version 2.40.1 (20161225.0304)
 -->
<!-- Title: dependencies Pages: 1 -->
<svg width="504pt" height="211pt"
 viewBox="0.00 0.00 504.00 211.00" xmlns="http://www.w3.org/2000/svg" xmlns:xlink="http://www.w3.org/1999/xlink">
<g id="graph0" class="graph" transform="scale(1 1) rotate(0) translate(4 207)">
<title>dependencies</title>
<polygon fill="#ffffff" stroke="transparent" points="-4,4 -4,-207 500,-207 500,4 -4,4"/>
<text text-anchor="start" x="227.0091" y="-42.4" font-family="sans-serif" font-weight="bold" font-size="14.00" fill="#000000">Legend</text>
<polygon fill="#ffffb3" stroke="transparent" points="14,-10 14,-30 34,-30 34,-10 14,-10"/>
<text text-anchor="start" x="37.629" y="-15.4" font-family="sans-serif" font-size="14.00" fill="#000000"> &#160;Declarations</text>
<polygon fill="#8dd3c7" stroke="transparent" points="127,-10 127,-30 147,-30 147,-10 127,-10"/>
<text text-anchor="start" x="150.7251" y="-15.4" font-family="sans-serif" font-size="14.00" fill="#000000"> &#160;Module</text>
<polygon fill="#80b1d3" stroke="transparent" points="213,-10 213,-30 233,-30 233,-10 213,-10"/>
<text text-anchor="start" x="236.7812" y="-15.4" font-family="sans-serif" font-size="14.00" fill="#000000"> &#160;Bootstrap</text>
<polygon fill="#fdb462" stroke="transparent" points="310,-10 310,-30 330,-30 330,-10 310,-10"/>
<text text-anchor="start" x="333.6732" y="-15.4" font-family="sans-serif" font-size="14.00" fill="#000000"> &#160;Providers</text>
<polygon fill="#fb8072" stroke="transparent" points="406,-10 406,-30 426,-30 426,-10 406,-10"/>
<text text-anchor="start" x="429.7258" y="-15.4" font-family="sans-serif" font-size="14.00" fill="#000000"> &#160;Exports</text>
<g id="clust1" class="cluster">
<title>cluster_AppModule</title>
<polygon fill="none" stroke="#000000" stroke-dasharray="1,5" points="54.5,-70 54.5,-195 441.5,-195 441.5,-70 54.5,-70"/>
</g>
<g id="clust3" class="cluster">
<title>cluster_AppModule_imports</title>
<polygon fill="none" stroke="#000000" points="62.5,-78 62.5,-130 433.5,-130 433.5,-78 62.5,-78"/>
</g>
<!-- PlayerCareerModule -->
<g id="node1" class="node">
<title>PlayerCareerModule</title>
<polygon fill="#8dd3c7" stroke="#000000" points="425.615,-122 422.615,-126 401.615,-126 398.615,-122 293.385,-122 293.385,-86 425.615,-86 425.615,-122"/>
<text text-anchor="middle" x="359.5" y="-99.8" font-family="Times,serif" font-size="14.00" fill="#000000">PlayerCareerModule</text>
</g>
<!-- AppModule -->
<g id="node4" class="node">
<title>AppModule</title>
<polygon fill="#8dd3c7" stroke="#000000" points="269.1571,-187 266.1571,-191 245.1571,-191 242.1571,-187 185.8429,-187 185.8429,-151 269.1571,-151 269.1571,-187"/>
<text text-anchor="middle" x="227.5" y="-164.8" font-family="Times,serif" font-size="14.00" fill="#000000">AppModule</text>
</g>
<!-- PlayerCareerModule&#45;&gt;AppModule -->
<g id="edge1" class="edge">
<title>PlayerCareerModule&#45;&gt;AppModule</title>
<path fill="none" stroke="#000000" d="M359.5,-122.1061C359.5,-141.3391 359.5,-169 359.5,-169 359.5,-169 279.2656,-169 279.2656,-169"/>
<polygon fill="#000000" stroke="#000000" points="279.2657,-165.5001 269.2656,-169 279.2656,-172.5001 279.2657,-165.5001"/>
</g>
<!-- PlayerModule -->
<g id="node2" class="node">
<title>PlayerModule</title>
<polygon fill="#8dd3c7" stroke="#000000" points="275.3133,-122 272.3133,-126 251.3133,-126 248.3133,-122 179.6867,-122 179.6867,-86 275.3133,-86 275.3133,-122"/>
<text text-anchor="middle" x="227.5" y="-99.8" font-family="Times,serif" font-size="14.00" fill="#000000">PlayerModule</text>
</g>
<!-- PlayerModule&#45;&gt;AppModule -->
<g id="edge2" class="edge">
<title>PlayerModule&#45;&gt;AppModule</title>
<path fill="none" stroke="#000000" d="M227.5,-122.1061C227.5,-122.1061 227.5,-140.991 227.5,-140.991"/>
<polygon fill="#000000" stroke="#000000" points="224.0001,-140.9909 227.5,-150.991 231.0001,-140.991 224.0001,-140.9909"/>
</g>
<!-- TeamModule -->
<g id="node3" class="node">
<title>TeamModule</title>
<polygon fill="#8dd3c7" stroke="#000000" points="162.4232,-122 159.4232,-126 138.4232,-126 135.4232,-122 70.5768,-122 70.5768,-86 162.4232,-86 162.4232,-122"/>
<text text-anchor="middle" x="116.5" y="-99.8" font-family="Times,serif" font-size="14.00" fill="#000000">TeamModule</text>
</g>
<!-- TeamModule&#45;&gt;AppModule -->
<g id="edge3" class="edge">
<title>TeamModule&#45;&gt;AppModule</title>
<path fill="none" stroke="#000000" d="M116.5,-122.1061C116.5,-141.3391 116.5,-169 116.5,-169 116.5,-169 175.5357,-169 175.5357,-169"/>
<polygon fill="#000000" stroke="#000000" points="175.5357,-172.5001 185.5357,-169 175.5356,-165.5001 175.5357,-172.5001"/>
</g>
</g>
</svg>
