<?xml version="1.0" encoding="UTF-8" standalone="no"?>
<!DOCTYPE svg PUBLIC "-//W3C//DTD SVG 1.1//EN"
 "http://www.w3.org/Graphics/SVG/1.1/DTD/svg11.dtd">
<!-- Generated by graphviz version 2.40.1 (20161225.0304)
 -->
<!-- Title: dependencies Pages: 1 -->
<svg width="504pt" height="287pt"
 viewBox="0.00 0.00 504.00 287.00" xmlns="http://www.w3.org/2000/svg" xmlns:xlink="http://www.w3.org/1999/xlink">
<g id="graph0" class="graph" transform="scale(1 1) rotate(0) translate(4 283)">
<title>dependencies</title>
<polygon fill="#ffffff" stroke="transparent" points="-4,4 -4,-283 500,-283 500,4 -4,4"/>
<text text-anchor="start" x="227.0091" y="-42.4" font-family="sans-serif" font-weight="bold" font-size="14.00" fill="#000000">Legend</text>
<polygon fill="#ffffb3" stroke="transparent" points="14,-10 14,-30 34,-30 34,-10 14,-10"/>
<text text-anchor="start" x="37.629" y="-15.4" font-family="sans-serif" font-size="14.00" fill="#000000"> &#160;Declarations</text>
<polygon fill="#8dd3c7" stroke="transparent" points="127,-10 127,-30 147,-30 147,-10 127,-10"/>
<text text-anchor="start" x="150.7251" y="-15.4" font-family="sans-serif" font-size="14.00" fill="#000000"> &#160;Module</text>
<polygon fill="#80b1d3" stroke="transparent" points="213,-10 213,-30 233,-30 233,-10 213,-10"/>
<text text-anchor="start" x="236.7812" y="-15.4" font-family="sans-serif" font-size="14.00" fill="#000000"> &#160;Bootstrap</text>
<polygon fill="#fdb462" stroke="transparent" points="310,-10 310,-30 330,-30 330,-10 310,-10"/>
<text text-anchor="start" x="333.6732" y="-15.4" font-family="sans-serif" font-size="14.00" fill="#000000"> &#160;Providers</text>
<polygon fill="#fb8072" stroke="transparent" points="406,-10 406,-30 426,-30 426,-10 406,-10"/>
<text text-anchor="start" x="429.7258" y="-15.4" font-family="sans-serif" font-size="14.00" fill="#000000"> &#160;Exports</text>
<g id="clust1" class="cluster">
<title>cluster_AppModule</title>
<polygon fill="none" stroke="#000000" stroke-dasharray="1,5" points="124,-146 124,-271 371,-271 371,-146 124,-146"/>
</g>
<g id="clust3" class="cluster">
<title>cluster_AppModule_imports</title>
<polygon fill="none" stroke="#000000" points="132,-154 132,-206 363,-206 363,-154 132,-154"/>
</g>
<g id="clust7" class="cluster">
<title>cluster_PlayersModule</title>
<polygon fill="none" stroke="#000000" stroke-dasharray="1,5" points="89,-70 89,-138 407,-138 407,-70 89,-70"/>
</g>
<g id="clust12" class="cluster">
<title>cluster_PlayersModule_providers</title>
<polygon fill="none" stroke="#000000" points="97,-78 97,-130 399,-130 399,-78 97,-78"/>
</g>
<!-- PlayersModule -->
<g id="node1" class="node">
<title>PlayersModule</title>
<polygon fill="#8dd3c7" stroke="#000000" points="355.2577,-198 352.2577,-202 331.2577,-202 328.2577,-198 254.7423,-198 254.7423,-162 355.2577,-162 355.2577,-198"/>
<text text-anchor="middle" x="305" y="-175.8" font-family="Times,serif" font-size="14.00" fill="#000000">PlayersModule</text>
</g>
<!-- AppModule -->
<g id="node3" class="node">
<title>AppModule</title>
<polygon fill="#8dd3c7" stroke="#000000" points="287.6571,-263 284.6571,-267 263.6571,-267 260.6571,-263 204.3429,-263 204.3429,-227 287.6571,-227 287.6571,-263"/>
<text text-anchor="middle" x="246" y="-240.8" font-family="Times,serif" font-size="14.00" fill="#000000">AppModule</text>
</g>
<!-- PlayersModule&#45;&gt;AppModule -->
<g id="edge1" class="edge">
<title>PlayersModule&#45;&gt;AppModule</title>
<path fill="none" stroke="#000000" d="M271.2247,-198.1061C271.2247,-198.1061 271.2247,-216.991 271.2247,-216.991"/>
<polygon fill="#000000" stroke="#000000" points="267.7248,-216.9909 271.2247,-226.991 274.7248,-216.991 267.7248,-216.9909"/>
</g>
<!-- TeamsModule -->
<g id="node2" class="node">
<title>TeamsModule</title>
<polygon fill="#8dd3c7" stroke="#000000" points="236.3669,-198 233.3669,-202 212.3669,-202 209.3669,-198 139.6331,-198 139.6331,-162 236.3669,-162 236.3669,-198"/>
<text text-anchor="middle" x="188" y="-175.8" font-family="Times,serif" font-size="14.00" fill="#000000">TeamsModule</text>
</g>
<!-- TeamsModule&#45;&gt;AppModule -->
<g id="edge2" class="edge">
<title>TeamsModule&#45;&gt;AppModule</title>
<path fill="none" stroke="#000000" d="M220.3026,-198.1061C220.3026,-198.1061 220.3026,-216.991 220.3026,-216.991"/>
<polygon fill="#000000" stroke="#000000" points="216.8027,-216.9909 220.3026,-226.991 223.8027,-216.991 216.8027,-216.9909"/>
</g>
<!-- PlayersService -->
<g id="node4" class="node">
<title>PlayersService</title>
<ellipse fill="#fdb462" stroke="#000000" cx="323" cy="-104" rx="68.3324" ry="18"/>
<text text-anchor="middle" x="323" y="-99.8" font-family="Times,serif" font-size="14.00" fill="#000000">PlayersService</text>
</g>
<!-- PlayersService&#45;&gt;PlayersModule -->
<g id="edge3" class="edge">
<title>PlayersService&#45;&gt;PlayersModule</title>
<path fill="none" stroke="#000000" d="M305,-121.627C305,-121.627 305,-151.9409 305,-151.9409"/>
<polygon fill="#000000" stroke="#000000" points="301.5001,-151.9408 305,-161.9409 308.5001,-151.9409 301.5001,-151.9408"/>
</g>
<!-- PlayersService&#45;&gt;TeamsModule -->
<g id="edge5" class="edge">
<title>PlayersService&#45;&gt;TeamsModule</title>
<path fill="none" stroke="#000000" d="M258.1689,-110C249.0361,-110 242.6829,-110 242.6829,-110 242.6829,-110 242.6829,-174 242.6829,-174 242.6829,-174 242.0557,-174 242.0557,-174"/>
<polygon fill="#000000" stroke="#000000" points="246.4102,-170.5002 236.4101,-174 246.41,-177.5002 246.4102,-170.5002"/>
</g>
<!-- TeamsService -->
<g id="node5" class="node">
<title>TeamsService</title>
<ellipse fill="#fdb462" stroke="#000000" cx="171" cy="-104" rx="65.9658" ry="18"/>
<text text-anchor="middle" x="171" y="-99.8" font-family="Times,serif" font-size="14.00" fill="#000000">TeamsService</text>
</g>
<!-- TeamsService&#45;&gt;PlayersModule -->
<g id="edge4" class="edge">
<title>TeamsService&#45;&gt;PlayersModule</title>
<path fill="none" stroke="#000000" d="M233.2955,-98C242.3207,-98 248.6334,-98 248.6334,-98 248.6334,-98 248.6334,-186 248.6334,-186 248.6334,-186 249.2366,-186 249.2366,-186"/>
<polygon fill="#000000" stroke="#000000" points="244.6657,-189.5002 254.6656,-186 244.6655,-182.5002 244.6657,-189.5002"/>
</g>
<!-- TeamsService&#45;&gt;TeamsModule -->
<g id="edge6" class="edge">
<title>TeamsService&#45;&gt;TeamsModule</title>
<path fill="none" stroke="#000000" d="M188,-121.627C188,-121.627 188,-151.9409 188,-151.9409"/>
<polygon fill="#000000" stroke="#000000" points="184.5001,-151.9408 188,-161.9409 191.5001,-151.9409 184.5001,-151.9408"/>
</g>
</g>
</svg>
